# xmcd
#
# Track frame offsets:
#	150
#	13125
#	27725
#	40875
#	55575
#	69550
#	83437
#	99787
#	116250
#	131100
#
# Disc length: 1923 seconds
#
# Revision: 0
# Processed by: cddbd v1.5.1PL0 Copyright (c) Steve Scherf et al.
# Submitted via: EasyCDDAExtractor 8.2.1.1
#
DISCID=7807810a
DTITLE=Steve Mantelli - Standin' on a runway
DYEAR=1900
DGENRE=
TTITLE0=Standin' on a runway
TTITLE1=Get over you
TTITLE2=Southern love
TTITLE3=Driftin' again
TTITLE4=Here we are together
TTITLE5=Queen of Nashville
TTITLE6=The world unfolds
TTITLE7=This young boy
TTITLE8=Is it me you want
TTITLE9=Workin' man
EXTD=
EXTT0=
EXTT1=
EXTT2=
EXTT3=
EXTT4=
EXTT5=
EXTT6=
EXTT7=
EXTT8=
EXTT9=
PLAYORDER=
